<?xml version="1.0" encoding="utf-8"?>
<!-- Generator: Adobe Illustrator 28.1.0, SVG Export Plug-In . SVG Version: 6.00 Build 0)  -->
<svg version="1.1" id="Layer_1" xmlns="http://www.w3.org/2000/svg" xmlns:xlink="http://www.w3.org/1999/xlink" x="0px" y="0px"
	 viewBox="0 0 453.54 453.54" style="enable-background:new 0 0 453.54 453.54;" xml:space="preserve">
<style type="text/css">
	.st0{fill:#145759;}
	.st1{fill:#FFFFFF;}
</style>
<g>
	<g>
		<path class="st0" d="M277.96,145.95c-8.79-10.44-17.25-20.49-26.27-31.2c6.39,0,12.1-0.1,17.81,0.12
			c0.73,0.03,1.64,1.62,2.06,2.65c3.38,8.14,6.66,16.31,9.97,24.48c1.89,4.66,1.95,4.69,7.45,3.65
			c-4.08-10.14-8.15-20.23-12.37-30.69c12.55,0,24.66,0,37.32,0c-4.14,10.29-8.23,20.42-12.32,30.6c5.21,1.23,5.57,1.07,7.3-3.18
			c3.4-8.37,6.85-16.72,10.15-25.13c0.7-1.79,1.52-2.64,3.58-2.58c5.13,0.15,10.26,0.05,16.24,0.05
			c-8.95,10.64-17.47,20.77-26.18,31.12c1.26,0.48,2.16,0.81,3.05,1.18c3.55,1.47,6.64,4.23,6.53,7.8
			c-0.16,5.36,3.09,5.76,6.74,6.96c48.19,15.78,77.32,48.69,85.17,98.7c10.03,63.92-34.38,123.89-98.61,135.08
			c-62.76,10.93-123.06-29.24-137.46-91.59c-14.46-62.58,23.1-125.65,85.07-142.68c3-0.83,4.63-1.64,4.84-5.24
			C268.35,150.47,272.27,147.49,277.96,145.95z M295.35,385.49c59.61,0,108.24-48.63,108.29-108.3
			c0.05-59.86-48.52-108.46-108.43-108.5c-59.6-0.03-108.17,48.53-108.3,108.31C186.78,336.71,235.53,385.49,295.35,385.49z"/>
		<path class="st0" d="M158.07,156.72c11.73,0.06,23.15,1.9,34.37,5.14c4.34,1.25,6.32,4.29,5.2,7.87
			c-1.07,3.43-4.19,4.72-8.51,3.52c-36.44-10.09-69.82-3.79-99.31,19.84c-23.28,18.65-36.59,43.31-39.54,73.11
			c-5.72,57.76,34.42,109.41,91.74,118.11c16.11,2.45,32.07,1.29,47.71-3.55c5.54-1.71,9.57,1.13,8.91,6.13
			c-0.4,2.99-2.48,4.29-5.1,5.09c-11.94,3.66-24.17,5.58-36.64,5.33c-32.35-0.64-60.48-11.97-83.44-34.84
			c-24.21-24.11-36.07-53.57-35.52-87.81c0.96-59.1,45.21-108.84,103.76-116.68C147.12,157.26,152.61,157.13,158.07,156.72z"/>
		<path class="st0" d="M295.28,90.55c5.32,6.16,10.32,11.96,15.68,18.17c-10.61,0-20.74,0-31.33,0
			C284.88,102.63,289.97,96.72,295.28,90.55z"/>
		<path class="st0" d="M273.48,107.25c-2.32-5.72-4.42-10.92-6.62-16.35c6.93,0,13.52,0,20.77,0
			C282.78,96.51,278.31,101.67,273.48,107.25z"/>
		<path class="st0" d="M323.7,90.96c-2.25,5.54-4.36,10.75-6.62,16.32c-4.81-5.57-9.3-10.77-14.08-16.32
			C309.98,90.96,316.57,90.96,323.7,90.96z"/>
		<path class="st0" d="M380.24,93.15c-8.33,0.41-12.59,4.71-12.96,12.9c-1.25-9.72-4.73-11.73-12.89-12.86
			c9.89-1.94,11.36-3.4,12.83-12.78C367.76,88.47,371.71,93.02,380.24,93.15z"/>
		<path class="st0" d="M356.54,140.57c-5.89,0.29-8.91,3.33-9.17,9.13c-0.88-6.88-3.35-8.3-9.12-9.1c7-1.37,8.04-2.4,9.08-9.05
			C347.71,137.26,350.51,140.48,356.54,140.57z"/>
		<path class="st0" d="M326.31,70.87c-3.02,0.15-4.56,1.71-4.69,4.67c-0.45-3.52-1.71-4.25-4.67-4.66c3.58-0.7,4.11-1.23,4.64-4.63
			C321.79,69.18,323.23,70.83,326.31,70.87z"/>
		<path class="st0" d="M253.5,134.73c-5.89,0.29-8.91,3.33-9.17,9.13c-0.88-6.88-3.35-8.3-9.12-9.1c7-1.37,8.04-2.4,9.08-9.05
			C244.67,131.42,247.47,134.64,253.5,134.73z"/>
		<path class="st0" d="M268.61,66.4c-3.9,0.19-5.9,2.21-6.07,6.04c-0.59-4.56-2.22-5.49-6.04-6.03c4.63-0.91,5.32-1.59,6.01-5.99
			C262.77,64.21,264.62,66.34,268.61,66.4z"/>
		<path class="st0" d="M223.68,82.61c1.33,7.21,3.37,8.96,12.76,10.66c-7.33,0.31-12.18,3.43-13,11.47
			c-1.19-7.52-5.42-11.39-12.6-11.23c2.62-1,5.96-1.48,8.13-3.34C221.18,88.27,222.25,85.03,223.68,82.61z"/>
		<path class="st0" d="M251.53,108.81c3.5-5.22,6.75-10.06,10.3-15.35c2.18,5.4,4.14,10.28,6.19,15.35
			C262.39,108.81,257.21,108.81,251.53,108.81z"/>
		<path class="st0" d="M339.1,108.89c-5.84,0-10.94,0-16.57,0c2.03-5.04,3.98-9.9,6.19-15.41
			C332.27,98.73,335.49,103.52,339.1,108.89z"/>
		<path class="st0" d="M266.39,272.44c0.05,21.17-3.37,37.24-11.1,52.14c-3.83,7.38-8.79,14.18-13.4,21.13
			c-2.87,4.33-1.15,9.43,3.65,9.99c3.06,0.36,4.93-1.56,6.64-3.75c15.24-19.54,24.05-41.58,25.7-66.36
			c2.08-31.31-6.74-59.26-26.19-83.86c-2.8-3.54-6.45-4.2-9.23-1.86c-2.74,2.3-2.74,5.79-0.05,9.19
			C258.12,228.91,266.14,251.49,266.39,272.44z"/>
		<path class="st0" d="M266.39,272.44c-0.24-20.95-8.27-43.54-23.99-63.38c-2.7-3.4-2.7-6.89,0.05-9.19
			c2.79-2.34,6.43-1.68,9.23,1.86c19.45,24.6,28.27,52.55,26.19,83.86c-1.64,24.78-10.45,46.82-25.7,66.36
			c-1.71,2.19-3.58,4.11-6.64,3.75c-4.8-0.56-6.52-5.67-3.65-9.99c4.61-6.95,9.57-13.75,13.4-21.13
			C263.02,309.69,266.44,293.61,266.39,272.44z"/>
	</g>
</g>
</svg>
